<?xml version="1.0" encoding="UTF-8" standalone="no"?>
<!DOCTYPE svg PUBLIC "-//W3C//DTD SVG 1.1//EN"
 "http://www.w3.org/Graphics/SVG/1.1/DTD/svg11.dtd">
<!-- Generated by graphviz version 2.40.1 (20161225.0304)
 -->
<!-- Title: Semaphore.h Pages: 1 -->
<svg width="198pt" height="86pt"
 viewBox="0.00 0.00 198.01 86.00" xmlns="http://www.w3.org/2000/svg" xmlns:xlink="http://www.w3.org/1999/xlink">
<g id="graph0" class="graph" transform="scale(1 1) rotate(0) translate(4 82)">
<title>Semaphore.h</title>
<polygon fill="#ffffff" stroke="transparent" points="-4,4 -4,-82 194.012,-82 194.012,4 -4,4"/>
<!-- Node1 -->
<g id="node1" class="node">
<title>Node1</title>
<polygon fill="#bfbfbf" stroke="#000000" points="56.7135,-57.5 56.7135,-77.5 132.7325,-77.5 132.7325,-57.5 56.7135,-57.5"/>
<text text-anchor="middle" x="94.723" y="-64.5" font-family="Helvetica,sans-Serif" font-size="10.00" fill="#000000">Semaphore.h</text>
</g>
<!-- Node2 -->
<g id="node2" class="node">
<title>Node2</title>
<g id="a_node2"><a xlink:href="barrier_main_8cpp.html" target="_top" xlink:title="barrierMain.cpp">
<polygon fill="#ffffff" stroke="#000000" points="0,-.5 0,-20.5 85.446,-20.5 85.446,-.5 0,-.5"/>
<text text-anchor="middle" x="42.723" y="-7.5" font-family="Helvetica,sans-Serif" font-size="10.00" fill="#000000">barrierMain.cpp</text>
</a>
</g>
</g>
<!-- Node1&#45;&gt;Node2 -->
<g id="edge1" class="edge">
<title>Node1&#45;&gt;Node2</title>
<path fill="none" stroke="#191970" d="M78.5873,-49.8128C69.8263,-40.2094 59.3108,-28.6828 51.9391,-20.6022"/>
<polygon fill="#191970" stroke="#191970" points="76.1011,-52.2807 85.4264,-57.3095 81.2725,-47.563 76.1011,-52.2807"/>
</g>
<!-- Node3 -->
<g id="node3" class="node">
<title>Node3</title>
<g id="a_node3"><a xlink:href="_semaphore_8cpp.html" target="_top" xlink:title="Semaphore.cpp">
<polygon fill="#ffffff" stroke="#000000" points="103.434,-.5 103.434,-20.5 190.012,-20.5 190.012,-.5 103.434,-.5"/>
<text text-anchor="middle" x="146.723" y="-7.5" font-family="Helvetica,sans-Serif" font-size="10.00" fill="#000000">Semaphore.cpp</text>
</a>
</g>
</g>
<!-- Node1&#45;&gt;Node3 -->
<g id="edge2" class="edge">
<title>Node1&#45;&gt;Node3</title>
<path fill="none" stroke="#191970" d="M110.8587,-49.8128C119.6197,-40.2094 130.1352,-28.6828 137.5069,-20.6022"/>
<polygon fill="#191970" stroke="#191970" points="108.1735,-47.563 104.0196,-57.3095 113.3449,-52.2807 108.1735,-47.563"/>
</g>
</g>
</svg>
