<?xml version="1.0" encoding="UTF-8" standalone="no"?>
<!DOCTYPE svg PUBLIC "-//W3C//DTD SVG 1.1//EN"
 "http://www.w3.org/Graphics/SVG/1.1/DTD/svg11.dtd">
<!-- Generated by graphviz version 2.40.1 (20161225.0304)
 -->
<!-- Title: Semaphore.h Pages: 1 -->
<svg width="220pt" height="86pt"
 viewBox="0.00 0.00 220.13 86.00" xmlns="http://www.w3.org/2000/svg" xmlns:xlink="http://www.w3.org/1999/xlink">
<g id="graph0" class="graph" transform="scale(1 1) rotate(0) translate(4 82)">
<title>Semaphore.h</title>
<polygon fill="#ffffff" stroke="transparent" points="-4,4 -4,-82 216.127,-82 216.127,4 -4,4"/>
<!-- Node1 -->
<g id="node1" class="node">
<title>Node1</title>
<polygon fill="#bfbfbf" stroke="#000000" points="72.8285,-57.5 72.8285,-77.5 148.8475,-77.5 148.8475,-57.5 72.8285,-57.5"/>
<text text-anchor="middle" x="110.838" y="-64.5" font-family="Helvetica,sans-Serif" font-size="10.00" fill="#000000">Semaphore.h</text>
</g>
<!-- Node2 -->
<g id="node2" class="node">
<title>Node2</title>
<g id="a_node2"><a xlink:href="m_exclusion_main_8cpp.html" target="_top" xlink:title="mExclusionMain.cpp">
<polygon fill="#ffffff" stroke="#000000" points="0,-.5 0,-20.5 107.676,-20.5 107.676,-.5 0,-.5"/>
<text text-anchor="middle" x="53.838" y="-7.5" font-family="Helvetica,sans-Serif" font-size="10.00" fill="#000000">mExclusionMain.cpp</text>
</a>
</g>
</g>
<!-- Node1&#45;&gt;Node2 -->
<g id="edge1" class="edge">
<title>Node1&#45;&gt;Node2</title>
<path fill="none" stroke="#191970" d="M93.4384,-50.1004C83.7783,-40.4403 72.1016,-28.7636 63.9402,-20.6022"/>
<polygon fill="#191970" stroke="#191970" points="91.1016,-52.7133 100.6475,-57.3095 96.0513,-47.7636 91.1016,-52.7133"/>
</g>
<!-- Node3 -->
<g id="node3" class="node">
<title>Node3</title>
<g id="a_node3"><a xlink:href="_semaphore_8cpp.html" target="_top" xlink:title="Semaphore.cpp">
<polygon fill="#ffffff" stroke="#000000" points="125.549,-.5 125.549,-20.5 212.127,-20.5 212.127,-.5 125.549,-.5"/>
<text text-anchor="middle" x="168.838" y="-7.5" font-family="Helvetica,sans-Serif" font-size="10.00" fill="#000000">Semaphore.cpp</text>
</a>
</g>
</g>
<!-- Node1&#45;&gt;Node3 -->
<g id="edge2" class="edge">
<title>Node1&#45;&gt;Node3</title>
<path fill="none" stroke="#191970" d="M128.5429,-50.1004C138.3725,-40.4403 150.254,-28.7636 158.5585,-20.6022"/>
<polygon fill="#191970" stroke="#191970" points="125.8863,-47.8039 121.2072,-57.3095 130.7928,-52.7965 125.8863,-47.8039"/>
</g>
</g>
</svg>
