<?xml version="1.0" encoding="UTF-8" standalone="no"?>
<!DOCTYPE svg PUBLIC "-//W3C//DTD SVG 1.1//EN"
 "http://www.w3.org/Graphics/SVG/1.1/DTD/svg11.dtd">
<!-- Generated by graphviz version 2.40.1 (20161225.0304)
 -->
<!-- Title: mExclusionMain.cpp Pages: 1 -->
<svg width="352pt" height="143pt"
 viewBox="0.00 0.00 351.78 143.00" xmlns="http://www.w3.org/2000/svg" xmlns:xlink="http://www.w3.org/1999/xlink">
<g id="graph0" class="graph" transform="scale(1 1) rotate(0) translate(4 139)">
<title>mExclusionMain.cpp</title>
<polygon fill="#ffffff" stroke="transparent" points="-4,4 -4,-139 347.785,-139 347.785,4 -4,4"/>
<!-- Node1 -->
<g id="node1" class="node">
<title>Node1</title>
<polygon fill="#bfbfbf" stroke="#000000" points="171.775,-114.5 171.775,-134.5 279.451,-134.5 279.451,-114.5 171.775,-114.5"/>
<text text-anchor="middle" x="225.613" y="-121.5" font-family="Helvetica,sans-Serif" font-size="10.00" fill="#000000">mExclusionMain.cpp</text>
</g>
<!-- Node2 -->
<g id="node2" class="node">
<title>Node2</title>
<g id="a_node2"><a xlink:href="_semaphore_8h.html" target="_top" xlink:title="Semaphore.h">
<polygon fill="#ffffff" stroke="#000000" points="71.6035,-57.5 71.6035,-77.5 147.6225,-77.5 147.6225,-57.5 71.6035,-57.5"/>
<text text-anchor="middle" x="109.613" y="-64.5" font-family="Helvetica,sans-Serif" font-size="10.00" fill="#000000">Semaphore.h</text>
</a>
</g>
</g>
<!-- Node1&#45;&gt;Node2 -->
<g id="edge1" class="edge">
<title>Node1&#45;&gt;Node2</title>
<path fill="none" stroke="#191970" d="M205.1416,-114.4408C186.8669,-105.461 159.8813,-92.2008 139.2487,-82.0624"/>
<polygon fill="#191970" stroke="#191970" points="140.7886,-78.9193 130.27,-77.6504 137.7014,-85.2019 140.7886,-78.9193"/>
</g>
<!-- Node6 -->
<g id="node6" class="node">
<title>Node6</title>
<polygon fill="#ffffff" stroke="#bfbfbf" points="165.4465,-57.5 165.4465,-77.5 219.7795,-77.5 219.7795,-57.5 165.4465,-57.5"/>
<text text-anchor="middle" x="192.613" y="-64.5" font-family="Helvetica,sans-Serif" font-size="10.00" fill="#000000">iostream</text>
</g>
<!-- Node1&#45;&gt;Node6 -->
<g id="edge5" class="edge">
<title>Node1&#45;&gt;Node6</title>
<path fill="none" stroke="#191970" d="M219.7133,-114.3095C215.2552,-106.6093 209.0068,-95.8166 203.6332,-86.5349"/>
<polygon fill="#191970" stroke="#191970" points="206.5011,-84.5029 198.4617,-77.6022 200.4431,-88.0102 206.5011,-84.5029"/>
</g>
<!-- Node7 -->
<g id="node7" class="node">
<title>Node7</title>
<polygon fill="#ffffff" stroke="#bfbfbf" points="238,-57.5 238,-77.5 281.226,-77.5 281.226,-57.5 238,-57.5"/>
<text text-anchor="middle" x="259.613" y="-64.5" font-family="Helvetica,sans-Serif" font-size="10.00" fill="#000000">vector</text>
</g>
<!-- Node1&#45;&gt;Node7 -->
<g id="edge6" class="edge">
<title>Node1&#45;&gt;Node7</title>
<path fill="none" stroke="#191970" d="M231.6915,-114.3095C236.333,-106.5282 242.8581,-95.589 248.4334,-86.2423"/>
<polygon fill="#191970" stroke="#191970" points="251.4701,-87.9834 253.5871,-77.6022 245.4584,-84.3975 251.4701,-87.9834"/>
</g>
<!-- Node8 -->
<g id="node8" class="node">
<title>Node8</title>
<polygon fill="#ffffff" stroke="#bfbfbf" points="299.441,-57.5 299.441,-77.5 343.785,-77.5 343.785,-57.5 299.441,-57.5"/>
<text text-anchor="middle" x="321.613" y="-64.5" font-family="Helvetica,sans-Serif" font-size="10.00" fill="#000000">thread</text>
</g>
<!-- Node1&#45;&gt;Node8 -->
<g id="edge7" class="edge">
<title>Node1&#45;&gt;Node8</title>
<path fill="none" stroke="#191970" d="M242.7759,-114.3095C257.5194,-105.5556 278.9942,-92.8049 295.809,-82.8211"/>
<polygon fill="#191970" stroke="#191970" points="297.7871,-85.7172 304.5987,-77.6022 294.2132,-79.6982 297.7871,-85.7172"/>
</g>
<!-- Node3 -->
<g id="node3" class="node">
<title>Node3</title>
<polygon fill="#ffffff" stroke="#bfbfbf" points="0,-.5 0,-20.5 43.226,-20.5 43.226,-.5 0,-.5"/>
<text text-anchor="middle" x="21.613" y="-7.5" font-family="Helvetica,sans-Serif" font-size="10.00" fill="#000000">mutex</text>
</g>
<!-- Node2&#45;&gt;Node3 -->
<g id="edge2" class="edge">
<title>Node2&#45;&gt;Node3</title>
<path fill="none" stroke="#191970" d="M93.8804,-57.3095C80.4906,-48.6366 61.0442,-36.0407 45.6959,-26.0992"/>
<polygon fill="#191970" stroke="#191970" points="47.5054,-23.1011 37.2094,-20.6022 43.6998,-28.9764 47.5054,-23.1011"/>
</g>
<!-- Node4 -->
<g id="node4" class="node">
<title>Node4</title>
<polygon fill="#ffffff" stroke="#bfbfbf" points="61.326,-.5 61.326,-20.5 157.9,-20.5 157.9,-.5 61.326,-.5"/>
<text text-anchor="middle" x="109.613" y="-7.5" font-family="Helvetica,sans-Serif" font-size="10.00" fill="#000000">condition_variable</text>
</g>
<!-- Node2&#45;&gt;Node4 -->
<g id="edge3" class="edge">
<title>Node2&#45;&gt;Node4</title>
<path fill="none" stroke="#191970" d="M109.613,-57.3095C109.613,-49.9335 109.613,-39.72 109.613,-30.715"/>
<polygon fill="#191970" stroke="#191970" points="113.1131,-30.6022 109.613,-20.6022 106.1131,-30.6023 113.1131,-30.6022"/>
</g>
<!-- Node5 -->
<g id="node5" class="node">
<title>Node5</title>
<polygon fill="#ffffff" stroke="#bfbfbf" points="176.3305,-.5 176.3305,-20.5 222.8955,-20.5 222.8955,-.5 176.3305,-.5"/>
<text text-anchor="middle" x="199.613" y="-7.5" font-family="Helvetica,sans-Serif" font-size="10.00" fill="#000000">chrono</text>
</g>
<!-- Node2&#45;&gt;Node5 -->
<g id="edge4" class="edge">
<title>Node2&#45;&gt;Node5</title>
<path fill="none" stroke="#191970" d="M125.7032,-57.3095C139.3973,-48.6366 159.2856,-36.0407 174.9827,-26.0992"/>
<polygon fill="#191970" stroke="#191970" points="177.0866,-28.9097 183.6621,-20.6022 173.3412,-22.9959 177.0866,-28.9097"/>
</g>
</g>
</svg>
