<?xml version="1.0" encoding="UTF-8" standalone="no"?>
<!DOCTYPE svg PUBLIC "-//W3C//DTD SVG 1.1//EN"
 "http://www.w3.org/Graphics/SVG/1.1/DTD/svg11.dtd">
<!-- Generated by graphviz version 2.40.1 (20161225.0304)
 -->
<!-- Title: Semaphore.h Pages: 1 -->
<svg width="231pt" height="86pt"
 viewBox="0.00 0.00 230.90 86.00" xmlns="http://www.w3.org/2000/svg" xmlns:xlink="http://www.w3.org/1999/xlink">
<g id="graph0" class="graph" transform="scale(1 1) rotate(0) translate(4 82)">
<title>Semaphore.h</title>
<polygon fill="#ffffff" stroke="transparent" points="-4,4 -4,-82 226.8955,-82 226.8955,4 -4,4"/>
<!-- Node1 -->
<g id="node1" class="node">
<title>Node1</title>
<polygon fill="#bfbfbf" stroke="#000000" points="71.6035,-57.5 71.6035,-77.5 147.6225,-77.5 147.6225,-57.5 71.6035,-57.5"/>
<text text-anchor="middle" x="109.613" y="-64.5" font-family="Helvetica,sans-Serif" font-size="10.00" fill="#000000">Semaphore.h</text>
</g>
<!-- Node2 -->
<g id="node2" class="node">
<title>Node2</title>
<polygon fill="#ffffff" stroke="#bfbfbf" points="0,-.5 0,-20.5 43.226,-20.5 43.226,-.5 0,-.5"/>
<text text-anchor="middle" x="21.613" y="-7.5" font-family="Helvetica,sans-Serif" font-size="10.00" fill="#000000">mutex</text>
</g>
<!-- Node1&#45;&gt;Node2 -->
<g id="edge1" class="edge">
<title>Node1&#45;&gt;Node2</title>
<path fill="none" stroke="#191970" d="M93.8804,-57.3095C80.4906,-48.6366 61.0442,-36.0407 45.6959,-26.0992"/>
<polygon fill="#191970" stroke="#191970" points="47.5054,-23.1011 37.2094,-20.6022 43.6998,-28.9764 47.5054,-23.1011"/>
</g>
<!-- Node3 -->
<g id="node3" class="node">
<title>Node3</title>
<polygon fill="#ffffff" stroke="#bfbfbf" points="61.326,-.5 61.326,-20.5 157.9,-20.5 157.9,-.5 61.326,-.5"/>
<text text-anchor="middle" x="109.613" y="-7.5" font-family="Helvetica,sans-Serif" font-size="10.00" fill="#000000">condition_variable</text>
</g>
<!-- Node1&#45;&gt;Node3 -->
<g id="edge2" class="edge">
<title>Node1&#45;&gt;Node3</title>
<path fill="none" stroke="#191970" d="M109.613,-57.3095C109.613,-49.9335 109.613,-39.72 109.613,-30.715"/>
<polygon fill="#191970" stroke="#191970" points="113.1131,-30.6022 109.613,-20.6022 106.1131,-30.6023 113.1131,-30.6022"/>
</g>
<!-- Node4 -->
<g id="node4" class="node">
<title>Node4</title>
<polygon fill="#ffffff" stroke="#bfbfbf" points="176.3305,-.5 176.3305,-20.5 222.8955,-20.5 222.8955,-.5 176.3305,-.5"/>
<text text-anchor="middle" x="199.613" y="-7.5" font-family="Helvetica,sans-Serif" font-size="10.00" fill="#000000">chrono</text>
</g>
<!-- Node1&#45;&gt;Node4 -->
<g id="edge3" class="edge">
<title>Node1&#45;&gt;Node4</title>
<path fill="none" stroke="#191970" d="M125.7032,-57.3095C139.3973,-48.6366 159.2856,-36.0407 174.9827,-26.0992"/>
<polygon fill="#191970" stroke="#191970" points="177.0866,-28.9097 183.6621,-20.6022 173.3412,-22.9959 177.0866,-28.9097"/>
</g>
</g>
</svg>
