<?xml version="1.0" encoding="UTF-8" standalone="no"?>
<!DOCTYPE svg PUBLIC "-//W3C//DTD SVG 1.1//EN"
 "http://www.w3.org/Graphics/SVG/1.1/DTD/svg11.dtd">
<!-- Generated by graphviz version 2.40.1 (20161225.0304)
 -->
<!-- Title: Semaphore.h Pages: 1 -->
<svg width="174pt" height="86pt"
 viewBox="0.00 0.00 173.79 86.00" xmlns="http://www.w3.org/2000/svg" xmlns:xlink="http://www.w3.org/1999/xlink">
<g id="graph0" class="graph" transform="scale(1 1) rotate(0) translate(4 82)">
<title>Semaphore.h</title>
<polygon fill="#ffffff" stroke="transparent" points="-4,4 -4,-82 169.795,-82 169.795,4 -4,4"/>
<!-- Node1 -->
<g id="node1" class="node">
<title>Node1</title>
<polygon fill="#bfbfbf" stroke="#000000" points="51.2795,-57.5 51.2795,-77.5 127.2985,-77.5 127.2985,-57.5 51.2795,-57.5"/>
<text text-anchor="middle" x="89.289" y="-64.5" font-family="Helvetica,sans-Serif" font-size="10.00" fill="#000000">Semaphore.h</text>
</g>
<!-- Node2 -->
<g id="node2" class="node">
<title>Node2</title>
<g id="a_node2"><a xlink:href="_semaphore_8cpp.html" target="_top" xlink:title="Semaphore.cpp">
<polygon fill="#ffffff" stroke="#000000" points="0,-.5 0,-20.5 86.578,-20.5 86.578,-.5 0,-.5"/>
<text text-anchor="middle" x="43.289" y="-7.5" font-family="Helvetica,sans-Serif" font-size="10.00" fill="#000000">Semaphore.cpp</text>
</a>
</g>
</g>
<!-- Node1&#45;&gt;Node2 -->
<g id="edge1" class="edge">
<title>Node1&#45;&gt;Node2</title>
<path fill="none" stroke="#191970" d="M74.7822,-49.5242C67.0792,-39.9792 57.8976,-28.602 51.4417,-20.6022"/>
<polygon fill="#191970" stroke="#191970" points="72.0612,-51.7256 81.0651,-57.3095 77.5086,-47.3295 72.0612,-51.7256"/>
</g>
<!-- Node3 -->
<g id="node3" class="node">
<title>Node3</title>
<g id="a_node3"><a xlink:href="signal_8cpp.html" target="_top" xlink:title="signal.cpp">
<polygon fill="#ffffff" stroke="#000000" points="104.783,-.5 104.783,-20.5 165.795,-20.5 165.795,-.5 104.783,-.5"/>
<text text-anchor="middle" x="135.289" y="-7.5" font-family="Helvetica,sans-Serif" font-size="10.00" fill="#000000">signal.cpp</text>
</a>
</g>
</g>
<!-- Node1&#45;&gt;Node3 -->
<g id="edge2" class="edge">
<title>Node1&#45;&gt;Node3</title>
<path fill="none" stroke="#191970" d="M103.7958,-49.5242C111.4988,-39.9792 120.6804,-28.602 127.1363,-20.6022"/>
<polygon fill="#191970" stroke="#191970" points="101.0694,-47.3295 97.5129,-57.3095 106.5168,-51.7256 101.0694,-47.3295"/>
</g>
</g>
</svg>
