<?xml version="1.0" encoding="UTF-8" standalone="no"?>
<!DOCTYPE svg PUBLIC "-//W3C//DTD SVG 1.1//EN"
 "http://www.w3.org/Graphics/SVG/1.1/DTD/svg11.dtd">
<!-- Generated by graphviz version 2.40.1 (20161225.0304)
 -->
<!-- Title: signal.cpp Pages: 1 -->
<svg width="290pt" height="143pt"
 viewBox="0.00 0.00 289.78 143.00" xmlns="http://www.w3.org/2000/svg" xmlns:xlink="http://www.w3.org/1999/xlink">
<g id="graph0" class="graph" transform="scale(1 1) rotate(0) translate(4 139)">
<title>signal.cpp</title>
<polygon fill="#ffffff" stroke="transparent" points="-4,4 -4,-139 285.785,-139 285.785,4 -4,4"/>
<!-- Node1 -->
<g id="node1" class="node">
<title>Node1</title>
<polygon fill="#bfbfbf" stroke="#000000" points="162.107,-114.5 162.107,-134.5 223.119,-134.5 223.119,-114.5 162.107,-114.5"/>
<text text-anchor="middle" x="192.613" y="-121.5" font-family="Helvetica,sans-Serif" font-size="10.00" fill="#000000">signal.cpp</text>
</g>
<!-- Node2 -->
<g id="node2" class="node">
<title>Node2</title>
<g id="a_node2"><a xlink:href="_semaphore_8h.html" target="_top" xlink:title="Semaphore.h">
<polygon fill="#ffffff" stroke="#000000" points="71.6035,-57.5 71.6035,-77.5 147.6225,-77.5 147.6225,-57.5 71.6035,-57.5"/>
<text text-anchor="middle" x="109.613" y="-64.5" font-family="Helvetica,sans-Serif" font-size="10.00" fill="#000000">Semaphore.h</text>
</a>
</g>
</g>
<!-- Node1&#45;&gt;Node2 -->
<g id="edge1" class="edge">
<title>Node1&#45;&gt;Node2</title>
<path fill="none" stroke="#191970" d="M177.7743,-114.3095C165.2633,-105.7177 147.1461,-93.2758 132.7345,-83.3786"/>
<polygon fill="#191970" stroke="#191970" points="134.548,-80.3782 124.3233,-77.6022 130.5852,-86.1485 134.548,-80.3782"/>
</g>
<!-- Node6 -->
<g id="node6" class="node">
<title>Node6</title>
<polygon fill="#ffffff" stroke="#bfbfbf" points="165.4465,-57.5 165.4465,-77.5 219.7795,-77.5 219.7795,-57.5 165.4465,-57.5"/>
<text text-anchor="middle" x="192.613" y="-64.5" font-family="Helvetica,sans-Serif" font-size="10.00" fill="#000000">iostream</text>
</g>
<!-- Node1&#45;&gt;Node6 -->
<g id="edge5" class="edge">
<title>Node1&#45;&gt;Node6</title>
<path fill="none" stroke="#191970" d="M192.613,-114.3095C192.613,-106.9335 192.613,-96.72 192.613,-87.715"/>
<polygon fill="#191970" stroke="#191970" points="196.1131,-87.6022 192.613,-77.6022 189.1131,-87.6023 196.1131,-87.6022"/>
</g>
<!-- Node7 -->
<g id="node7" class="node">
<title>Node7</title>
<polygon fill="#ffffff" stroke="#bfbfbf" points="237.441,-57.5 237.441,-77.5 281.785,-77.5 281.785,-57.5 237.441,-57.5"/>
<text text-anchor="middle" x="259.613" y="-64.5" font-family="Helvetica,sans-Serif" font-size="10.00" fill="#000000">thread</text>
</g>
<!-- Node1&#45;&gt;Node7 -->
<g id="edge6" class="edge">
<title>Node1&#45;&gt;Node7</title>
<path fill="none" stroke="#191970" d="M204.5913,-114.3095C214.4047,-105.9608 228.491,-93.9769 239.9539,-84.2249"/>
<polygon fill="#191970" stroke="#191970" points="242.3898,-86.7479 247.7384,-77.6022 237.8539,-81.4162 242.3898,-86.7479"/>
</g>
<!-- Node3 -->
<g id="node3" class="node">
<title>Node3</title>
<polygon fill="#ffffff" stroke="#bfbfbf" points="0,-.5 0,-20.5 43.226,-20.5 43.226,-.5 0,-.5"/>
<text text-anchor="middle" x="21.613" y="-7.5" font-family="Helvetica,sans-Serif" font-size="10.00" fill="#000000">mutex</text>
</g>
<!-- Node2&#45;&gt;Node3 -->
<g id="edge2" class="edge">
<title>Node2&#45;&gt;Node3</title>
<path fill="none" stroke="#191970" d="M93.8804,-57.3095C80.4906,-48.6366 61.0442,-36.0407 45.6959,-26.0992"/>
<polygon fill="#191970" stroke="#191970" points="47.5054,-23.1011 37.2094,-20.6022 43.6998,-28.9764 47.5054,-23.1011"/>
</g>
<!-- Node4 -->
<g id="node4" class="node">
<title>Node4</title>
<polygon fill="#ffffff" stroke="#bfbfbf" points="61.326,-.5 61.326,-20.5 157.9,-20.5 157.9,-.5 61.326,-.5"/>
<text text-anchor="middle" x="109.613" y="-7.5" font-family="Helvetica,sans-Serif" font-size="10.00" fill="#000000">condition_variable</text>
</g>
<!-- Node2&#45;&gt;Node4 -->
<g id="edge3" class="edge">
<title>Node2&#45;&gt;Node4</title>
<path fill="none" stroke="#191970" d="M109.613,-57.3095C109.613,-49.9335 109.613,-39.72 109.613,-30.715"/>
<polygon fill="#191970" stroke="#191970" points="113.1131,-30.6022 109.613,-20.6022 106.1131,-30.6023 113.1131,-30.6022"/>
</g>
<!-- Node5 -->
<g id="node5" class="node">
<title>Node5</title>
<polygon fill="#ffffff" stroke="#bfbfbf" points="176.3305,-.5 176.3305,-20.5 222.8955,-20.5 222.8955,-.5 176.3305,-.5"/>
<text text-anchor="middle" x="199.613" y="-7.5" font-family="Helvetica,sans-Serif" font-size="10.00" fill="#000000">chrono</text>
</g>
<!-- Node2&#45;&gt;Node5 -->
<g id="edge4" class="edge">
<title>Node2&#45;&gt;Node5</title>
<path fill="none" stroke="#191970" d="M125.7032,-57.3095C139.3973,-48.6366 159.2856,-36.0407 174.9827,-26.0992"/>
<polygon fill="#191970" stroke="#191970" points="177.0866,-28.9097 183.6621,-20.6022 173.3412,-22.9959 177.0866,-28.9097"/>
</g>
</g>
</svg>
