<?xml version="1.0" encoding="UTF-8" standalone="no"?>
<!DOCTYPE svg PUBLIC "-//W3C//DTD SVG 1.1//EN"
 "http://www.w3.org/Graphics/SVG/1.1/DTD/svg11.dtd">
<!-- Generated by graphviz version 2.40.1 (20161225.0304)
 -->
<!-- Title: Semaphore.h Pages: 1 -->
<svg width="194pt" height="86pt"
 viewBox="0.00 0.00 194.08 86.00" xmlns="http://www.w3.org/2000/svg" xmlns:xlink="http://www.w3.org/1999/xlink">
<g id="graph0" class="graph" transform="scale(1 1) rotate(0) translate(4 82)">
<title>Semaphore.h</title>
<polygon fill="#ffffff" stroke="transparent" points="-4,4 -4,-82 190.079,-82 190.079,4 -4,4"/>
<!-- Node1 -->
<g id="node1" class="node">
<title>Node1</title>
<polygon fill="#bfbfbf" stroke="#000000" points="53.7805,-57.5 53.7805,-77.5 129.7995,-77.5 129.7995,-57.5 53.7805,-57.5"/>
<text text-anchor="middle" x="91.79" y="-64.5" font-family="Helvetica,sans-Serif" font-size="10.00" fill="#000000">Semaphore.h</text>
</g>
<!-- Node2 -->
<g id="node2" class="node">
<title>Node2</title>
<g id="a_node2"><a xlink:href="rendevous_8cpp.html" target="_top" xlink:title="rendevous.cpp">
<polygon fill="#ffffff" stroke="#000000" points="0,-.5 0,-20.5 81.58,-20.5 81.58,-.5 0,-.5"/>
<text text-anchor="middle" x="40.79" y="-7.5" font-family="Helvetica,sans-Serif" font-size="10.00" fill="#000000">rendevous.cpp</text>
</a>
</g>
</g>
<!-- Node1&#45;&gt;Node2 -->
<g id="edge1" class="edge">
<title>Node1&#45;&gt;Node2</title>
<path fill="none" stroke="#191970" d="M75.9646,-49.8128C67.3721,-40.2094 57.0588,-28.6828 49.8288,-20.6022"/>
<polygon fill="#191970" stroke="#191970" points="73.3959,-52.1909 82.6722,-57.3095 78.6126,-47.5233 73.3959,-52.1909"/>
</g>
<!-- Node3 -->
<g id="node3" class="node">
<title>Node3</title>
<g id="a_node3"><a xlink:href="_semaphore_8cpp.html" target="_top" xlink:title="Semaphore.cpp">
<polygon fill="#ffffff" stroke="#000000" points="99.501,-.5 99.501,-20.5 186.079,-20.5 186.079,-.5 99.501,-.5"/>
<text text-anchor="middle" x="142.79" y="-7.5" font-family="Helvetica,sans-Serif" font-size="10.00" fill="#000000">Semaphore.cpp</text>
</a>
</g>
</g>
<!-- Node1&#45;&gt;Node3 -->
<g id="edge2" class="edge">
<title>Node1&#45;&gt;Node3</title>
<path fill="none" stroke="#191970" d="M107.6154,-49.8128C116.2079,-40.2094 126.5212,-28.6828 133.7512,-20.6022"/>
<polygon fill="#191970" stroke="#191970" points="104.9674,-47.5233 100.9078,-57.3095 110.1841,-52.1909 104.9674,-47.5233"/>
</g>
</g>
</svg>
